<svg viewBox="0 0 152 71" fill="none" xmlns="http://www.w3.org/2000/svg">
<path d="M117.448 38.1213C117.344 38.0654 117.261 38.0032 117.199 37.9345C117.136 37.8659 117.09 37.7918 117.061 37.7122C117.032 37.6345 117.018 37.5517 117.02 37.4637C117.023 37.3777 117.036 37.2874 117.06 37.1927C117.084 37.1001 117.118 37.0047 117.16 36.9066C117.203 36.8085 117.251 36.7092 117.304 36.6088L118.35 34.6581L121.038 36.0985L120.012 38.014C119.97 38.0909 119.926 38.1662 119.878 38.2396C119.83 38.3144 119.777 38.3821 119.721 38.4427C119.667 38.5041 119.608 38.5564 119.544 38.5996C119.48 38.6441 119.411 38.675 119.336 38.692C119.261 38.7104 119.181 38.7128 119.096 38.6992C119.01 38.6868 118.918 38.6544 118.82 38.602C118.645 38.5083 118.53 38.3909 118.473 38.2496C118.417 38.109 118.422 37.937 118.487 37.7336C118.408 37.8591 118.328 37.9598 118.247 38.0357C118.167 38.1135 118.084 38.1674 117.999 38.1975C117.916 38.2282 117.828 38.2367 117.737 38.2228C117.646 38.2097 117.55 38.1758 117.448 38.1213ZM119.084 37.8319C119.118 37.8501 119.153 37.862 119.189 37.8676C119.225 37.8739 119.263 37.8697 119.301 37.8549C119.339 37.8401 119.378 37.813 119.418 37.7738C119.457 37.7345 119.496 37.6783 119.536 37.6053L120.109 36.5351L119.604 36.2646L119.031 37.3348C118.992 37.4079 118.966 37.4714 118.954 37.5253C118.942 37.5793 118.939 37.6259 118.947 37.6651C118.954 37.7044 118.97 37.7373 118.995 37.7638C119.021 37.791 119.05 37.8137 119.084 37.8319ZM117.928 37.4288C117.989 37.4616 118.044 37.4774 118.091 37.4761C118.14 37.4755 118.187 37.4583 118.23 37.4244C118.274 37.3913 118.319 37.3412 118.363 37.2743C118.407 37.2073 118.456 37.1249 118.508 37.0271L119.07 35.9784L118.501 35.6733L117.939 36.722C117.886 36.8199 117.845 36.9057 117.813 36.9797C117.782 37.0536 117.765 37.1183 117.762 37.1739C117.759 37.2294 117.771 37.2774 117.796 37.3178C117.823 37.359 117.867 37.396 117.928 37.4288Z" fill="black"/>
<path d="M116.811 42.7007L115.574 42.554L115.671 41.7384L116.907 41.8851L118.874 40.6296L118.765 41.5466L117.432 42.3631L118.537 43.4643L118.429 44.3813L116.811 42.7007Z" fill="black"/>
<path d="M117.223 48.6824C117.025 48.727 116.848 48.7329 116.69 48.7002C116.533 48.6689 116.394 48.6016 116.274 48.4983C116.154 48.3964 116.051 48.261 115.966 48.0921C115.882 47.9229 115.815 47.7235 115.763 47.494C115.739 47.3857 115.719 47.2733 115.705 47.1566C115.689 47.0403 115.678 46.9277 115.67 46.8187C115.662 46.7097 115.657 46.6085 115.654 46.5151C115.653 46.4229 115.653 46.3453 115.656 46.2826L116.353 46.1253C116.342 46.1915 116.332 46.2636 116.322 46.3416C116.314 46.4193 116.31 46.5045 116.309 46.5971C116.309 46.6912 116.315 46.7931 116.326 46.9028C116.337 47.014 116.358 47.1346 116.387 47.2645C116.419 47.4045 116.46 47.5173 116.511 47.6029C116.564 47.6895 116.624 47.7548 116.692 47.7988C116.761 47.8424 116.835 47.8673 116.916 47.8734C116.996 47.8796 117.081 47.8726 117.17 47.8524L118.918 47.4584L119.098 48.2595L117.223 48.6824Z" fill="black"/>
<path d="M120.656 54.39C120.437 54.5345 120.218 54.6221 119.997 54.6529C119.777 54.6828 119.562 54.6603 119.351 54.5852C119.14 54.5101 118.934 54.385 118.735 54.2099C118.538 54.0351 118.352 53.815 118.176 53.5497C118.001 53.2843 117.87 53.0254 117.785 52.7731C117.702 52.5212 117.667 52.2828 117.679 52.058C117.692 51.8331 117.755 51.6249 117.868 51.4332C117.982 51.2407 118.148 51.0722 118.366 50.9278C118.585 50.7833 118.804 50.6967 119.025 50.6679C119.247 50.6384 119.463 50.6618 119.675 50.7381C119.887 50.8144 120.092 50.9405 120.29 51.1165C120.49 51.2929 120.678 51.5138 120.853 51.7792C121.029 52.0445 121.158 52.3026 121.24 52.5532C121.325 52.8043 121.36 53.0417 121.347 53.2653C121.333 53.4889 121.269 53.6964 121.154 53.8876C121.04 54.078 120.874 54.2455 120.656 54.39ZM120.197 53.6957C120.292 53.6328 120.376 53.555 120.449 53.4621C120.525 53.3696 120.575 53.2596 120.598 53.132C120.623 53.0057 120.615 52.8604 120.574 52.696C120.532 52.5317 120.444 52.3465 120.307 52.1404C120.216 52.0021 120.124 51.8879 120.033 51.7977C119.942 51.7066 119.853 51.6355 119.764 51.5843C119.675 51.5331 119.587 51.4987 119.501 51.4811C119.416 51.4627 119.334 51.4577 119.255 51.466C119.176 51.4735 119.1 51.4917 119.027 51.5206C118.956 51.5499 118.89 51.5849 118.828 51.6258C118.765 51.6674 118.705 51.7156 118.649 51.7704C118.594 51.8264 118.547 51.8894 118.508 51.9595C118.471 52.0287 118.444 52.106 118.428 52.1913C118.411 52.2766 118.409 52.3701 118.422 52.472C118.435 52.573 118.465 52.6833 118.513 52.8029C118.561 52.9217 118.631 53.0502 118.722 53.1885C118.859 53.3946 118.994 53.5488 119.129 53.6511C119.265 53.7534 119.395 53.8179 119.521 53.8446C119.648 53.8726 119.768 53.8704 119.881 53.8379C119.997 53.806 120.102 53.7585 120.197 53.6957Z" fill="black"/>
<path d="M123.953 58.9444L124.648 57.8796L122.894 56.7335L122.198 57.7983L121.509 57.3479L123.177 54.7946L123.866 55.245L123.259 56.1742L125.014 57.3202L125.621 56.3911L126.31 56.8415L124.642 59.3948L123.953 58.9444Z" fill="black"/>
<path d="M130.441 61.0986L128.77 58.6839L128.414 60.7487L127.602 60.6087L128.121 57.6033L129.002 57.7554L130.674 60.1793L131.032 58.1056L131.839 58.2449L131.321 61.2504L130.441 61.0986Z" fill="black"/>
<path d="M138.971 59.9146L138.23 60.2744L136.897 57.531L138.754 56.6291C138.954 56.5321 139.133 56.4706 139.291 56.4446C139.451 56.418 139.593 56.4216 139.716 56.4555C139.841 56.4887 139.949 56.5498 140.04 56.6389C140.131 56.7259 140.209 56.8354 140.273 56.9672C140.329 57.083 140.362 57.1922 140.371 57.2949C140.381 57.3969 140.373 57.4928 140.347 57.5825C140.323 57.6703 140.284 57.7532 140.231 57.8314C140.179 57.9095 140.119 57.9823 140.051 58.0497L141.476 58.6974L140.61 59.1183L139.288 58.5115L138.48 58.9043L138.971 59.9146ZM139.522 57.3269C139.497 57.2736 139.467 57.2319 139.435 57.2018C139.403 57.1709 139.365 57.1526 139.319 57.1468C139.273 57.1397 139.218 57.145 139.154 57.1628C139.092 57.18 139.017 57.2095 138.931 57.2516L137.916 57.7443L138.202 58.3313L139.216 57.8386C139.302 57.7965 139.372 57.7563 139.424 57.7179C139.477 57.6788 139.516 57.6395 139.539 57.6001C139.562 57.5593 139.571 57.517 139.566 57.4733C139.563 57.4289 139.548 57.3801 139.522 57.3269Z" fill="black"/>
<path d="M145.049 54.7208L143.896 55.9709L144.126 56.5727L143.504 57.2483L142.343 54.0077L142.966 53.332L146.29 54.2258L145.667 54.9015L145.049 54.7208ZM143.659 55.3507L144.414 54.5314L143.212 54.1781L143.659 55.3507Z" fill="black"/>
<path d="M147.124 49.818L148.279 50.2826L147.973 51.0446L146.817 50.58L144.592 51.2784L144.936 50.4217L146.436 49.9817L145.656 48.63L146.001 47.7732L147.124 49.818Z" fill="black"/>
<path d="M149.344 42.2992L147.203 42.3539L149.373 43.4309L149.393 44.2209L147.28 45.4072L149.422 45.3525L149.443 46.1758L146.394 46.2536L146.365 45.1353L148.642 43.8448L146.302 42.6722L146.274 41.5583L149.323 41.4804L149.344 42.2992Z" fill="black"/>
<path d="M145.425 35.6915C145.661 35.5762 145.89 35.5174 146.113 35.5151C146.334 35.5135 146.545 35.5634 146.745 35.6649C146.945 35.7663 147.132 35.9167 147.307 36.1159C147.48 36.3144 147.637 36.5565 147.777 36.8422C147.917 37.1278 148.014 37.4012 148.066 37.6623C148.116 37.9228 148.121 38.1638 148.079 38.3851C148.038 38.6065 147.949 38.8051 147.812 38.9807C147.675 39.157 147.488 39.3029 147.253 39.4182C147.018 39.5335 146.789 39.5913 146.567 39.5916C146.343 39.5926 146.131 39.5416 145.931 39.4389C145.73 39.3361 145.543 39.1847 145.369 38.9849C145.194 38.7843 145.036 38.5412 144.896 38.2556C144.755 37.9699 144.661 37.6975 144.611 37.4384C144.559 37.1786 144.554 36.9386 144.597 36.7186C144.639 36.4985 144.729 36.301 144.867 36.126C145.004 35.9517 145.19 35.8068 145.425 35.6915ZM145.792 36.4388C145.69 36.489 145.596 36.5555 145.511 36.6382C145.425 36.7203 145.361 36.823 145.321 36.9465C145.281 37.0686 145.27 37.2138 145.29 37.382C145.31 37.5503 145.375 37.7454 145.483 37.9672C145.556 38.116 145.633 38.241 145.712 38.3422C145.79 38.4441 145.87 38.5261 145.951 38.5883C146.033 38.6504 146.115 38.6957 146.198 38.7242C146.28 38.7533 146.361 38.7688 146.441 38.7707C146.52 38.7733 146.597 38.7649 146.674 38.7457C146.748 38.7257 146.818 38.6995 146.885 38.6669C146.952 38.6336 147.018 38.5934 147.08 38.5463C147.142 38.4978 147.197 38.4413 147.244 38.3768C147.29 38.3129 147.327 38.2398 147.354 38.1572C147.381 38.0747 147.395 37.9822 147.396 37.8796C147.395 37.7777 147.379 37.6644 147.348 37.5397C147.315 37.4157 147.262 37.2793 147.189 37.1305C147.08 36.9086 146.966 36.7383 146.845 36.6196C146.724 36.5009 146.603 36.4202 146.481 36.3776C146.359 36.3336 146.24 36.3205 146.123 36.3381C146.005 36.3551 145.894 36.3887 145.792 36.4388Z" fill="black"/>
<path d="M142.767 30.7773L142.971 33.707L144.332 32.1138L144.958 32.6487L142.977 34.9676L142.297 34.3866L142.097 31.4487L140.73 33.0486L140.108 32.5166L142.089 30.1977L142.767 30.7773Z" fill="black"/>
<path d="M27.4497 34.7192L20.6652 25.8036L22.7378 38.3048L19.4488 40.8077L7.95236 35.4777L14.7369 44.3933L11.3092 47.0017L1.64919 34.3073L6.30563 30.7639L18.7451 36.4705L16.5609 22.96L21.1988 19.4306L30.8589 32.1249L27.4497 34.7192Z" fill="black"/>
<path d="M39.1747 28.4734L34.0614 13.3633L49.3585 8.18673L50.4489 11.4089L39.3417 15.1676L40.1865 17.6639L50.7218 14.0988L51.8122 17.321L41.2769 20.8861L42.2742 23.8334L53.5354 20.0226L54.6257 23.2448L39.1747 28.4734Z" fill="black"/>
<path d="M66.6238 21.5845L62.3211 21.7823L61.5887 5.84723L72.3745 5.35153C73.5342 5.29823 74.5217 5.37294 75.3368 5.57567C76.1596 5.77804 76.8324 6.08803 77.3553 6.50564C77.8858 6.9229 78.2776 7.43951 78.5306 8.05547C78.791 8.66335 78.9387 9.35001 78.9739 10.1154C79.0048 10.7881 78.9352 11.3802 78.765 11.8916C78.6025 12.4027 78.3673 12.8474 78.0593 13.2257C77.7586 13.5959 77.4013 13.9145 76.9875 14.1815C76.5736 14.4484 76.1346 14.6739 75.6704 14.858L81.1787 20.9156L76.1454 21.1469L71.0511 15.5003L66.3541 15.7162L66.6238 21.5845ZM74.6238 10.2921C74.6096 9.98286 74.5549 9.72194 74.4599 9.50936C74.3727 9.29642 74.2255 9.12886 74.0185 9.00666C73.811 8.87672 73.5358 8.78865 73.1928 8.74243C72.8575 8.69586 72.4385 8.68412 71.936 8.70721L66.0444 8.97798L66.2011 12.3877L72.0927 12.1169C72.5952 12.0938 73.0113 12.0437 73.3409 11.9666C73.6783 11.8891 73.9445 11.78 74.1394 11.6393C74.3341 11.4909 74.4651 11.3067 74.5324 11.0866C74.6075 10.8662 74.638 10.6014 74.6238 10.2921Z" fill="black"/>
<path d="M105.302 25.0053C104.705 25.0965 104.11 25.1642 103.517 25.2084C102.924 25.2526 102.319 25.2659 101.701 25.2482C101.082 25.238 100.437 25.1857 99.7663 25.0911C99.1035 24.9984 98.4003 24.8598 97.6566 24.6753C96.079 24.2839 94.6674 23.7542 93.4216 23.0862C92.1834 22.4201 91.1673 21.6297 90.3735 20.7151C89.5891 19.7948 89.0561 18.7614 88.7743 17.6149C88.4945 16.4609 88.5232 15.2041 88.8606 13.8444C89.1979 12.4847 89.7591 11.364 90.5441 10.4822C91.331 9.59287 92.2853 8.92853 93.4071 8.48916C94.5382 8.04414 95.8068 7.81664 97.2128 7.80664C98.6263 7.79851 100.122 7.99016 101.699 8.38158C102.443 8.56611 103.13 8.77233 103.759 9.00024C104.396 9.23 104.99 9.48519 105.543 9.76579C106.097 10.0389 106.626 10.3336 107.129 10.65C107.633 10.9663 108.127 11.3043 108.612 11.6638L107.679 15.4274C107.308 15.0883 106.914 14.7473 106.497 14.4045C106.081 14.0542 105.611 13.7181 105.084 13.3962C104.56 13.0667 103.97 12.7608 103.314 12.4785C102.661 12.1887 101.906 11.9376 101.049 11.7251C99.7346 11.3989 98.6081 11.2629 97.6696 11.3171C96.7386 11.3732 95.958 11.5623 95.3278 11.8844C94.6976 12.2065 94.2047 12.6345 93.849 13.1682C93.4951 13.6945 93.2408 14.2693 93.0861 14.8928C92.9836 15.306 92.9271 15.7266 92.9166 16.1546C92.9079 16.5751 92.9641 16.9918 93.0849 17.4045C93.2077 17.8098 93.4008 18.2046 93.6643 18.589C93.9278 18.9733 94.2841 19.3369 94.7334 19.6796C95.1826 20.0223 95.7257 20.3405 96.3626 20.6341C97.0089 20.922 97.7715 21.1751 98.6504 21.3931C99.5067 21.6056 100.29 21.7441 100.999 21.8085C101.711 21.8655 102.375 21.8746 102.99 21.836C103.606 21.7974 104.178 21.7241 104.708 21.6161C105.239 21.5007 105.748 21.3759 106.236 21.2418L105.302 25.0053Z" fill="black"/>
<path d="M125.651 36.9996L129.103 31.3127L119.734 25.6264L116.282 31.3133L112.6 29.0786L120.876 15.4418L124.558 17.6765L121.547 22.639L130.916 28.3253L133.928 23.3628L137.61 25.5976L129.333 39.2344L125.651 36.9996Z" fill="black"/>
</svg>
